# xmcd CD database file
#
# Track frame offsets:
#	150
#	12570
#	26130
#	37502
#	48130
#	58877
#	69370
#	78935
#	91037
#	98587
#	111925
#	125372
#	141050
#	157527
#	168807
#	180132
#	191102
#	212835
#	223105
#	233687
#	251602
#	265192
#	280027
#	291160
#
# Disc length: 4300 seconds
#
# Revision: 3
# Processed by: cddbd v1.5.2PL0 Copyright (c) Steve Scherf et al.
# Submitted via: CDex 1.70beta2
#
DISCID=3910ca18
DTITLE=James Brown - Star Time Mr. Dynamite 1
DYEAR=1991
DGENRE=R&B
TTITLE0=Please Please Please
TTITLE1=Why Do You Do Me
TTITLE2=Try Me
TTITLE3=Tell Me What I Did Wrong
TTITLE4=Bewildered
TTITLE5=Good Good Lovin'
TTITLE6=I'll Go Crazy
TTITLE7=I Know It's True
TTITLE8=(Do The) Mashed Potatoes, Part 1
TTITLE9=Think
TTITLE10=Baby, You're Right
TTITLE11=Lost Someone
TTITLE12=Night Train
TTITLE13=I've Got Money
TTITLE14=I Don't Mind (Live)
TTITLE15=Prisoner Of Love
TTITLE16=Devil's Den
TTITLE17=Out Of The Blue
TTITLE18=Out Of Sight
TTITLE19=Grits
TTITLE20=Maybe The Last Time
TTITLE21=It's A Man's World
TTITLE22=I Got You
TTITLE23=Papa's Got A Brand New Bag, Parts 1, 2 and 3
EXTD=YEAR: 1991
EXTT0=
EXTT1=
EXTT2=
EXTT3=
EXTT4=
EXTT5=
EXTT6=
EXTT7=
EXTT8=
EXTT9=
EXTT10=
EXTT11=
EXTT12=
EXTT13=
EXTT14=
EXTT15=
EXTT16=
EXTT17=
EXTT18=
EXTT19=
EXTT20=
EXTT21=
EXTT22=
EXTT23=
PLAYORDER=
